<svg width="26" height="26" viewBox="0 0 26 26" fill="none" xmlns="http://www.w3.org/2000/svg">
<g clip-path="url(#clip0_373_908)">
<path fill-rule="evenodd" clip-rule="evenodd" d="M13.0314 4.22955C9.40376 4.22955 6.08389 6.25471 4.85268 8.82597L9.9754 15.5386L2.43423 11.8068C1.02713 11.1242 0.23564 8.75771 0.82926 7.36968C1.48884 5.82237 2.1704 4.91219 3.31367 3.7517C8.19454 -1.2543 17.7584 -1.27706 22.7492 3.84272C24.1123 5.2535 25.2116 6.7098 25.9591 9.87268C26.3329 11.4883 24.8599 12.0344 24.0244 11.6248L21.4301 10.305C21.3641 7.36968 17.5166 4.22955 13.0314 4.22955ZM12.9873 21.7733C16.615 21.7733 19.9349 19.7481 21.1661 17.1768L16.0434 10.4642L23.5845 14.196C24.9916 14.8786 25.7831 17.2451 25.1895 18.6331C24.5299 20.1804 23.8484 21.0906 22.7051 22.2511C17.8242 27.2571 8.26035 27.2799 3.26955 22.1373C1.90643 20.7266 0.807132 19.2703 0.059611 16.1074C-0.314149 14.4918 1.15891 13.9457 1.99437 14.3553L4.58871 15.6978C4.65466 18.6331 8.5022 21.7733 12.9873 21.7733Z" fill="white"/>
</g>
<defs>
<clipPath id="clip0_373_908">
<rect width="26" height="26" fill="white"/>
</clipPath>
</defs>
</svg>
